<?xml version="1.0" encoding="UTF-8"?> <svg xmlns="http://www.w3.org/2000/svg" width="215" height="32" viewBox="0 0 215 32" fill="none"><g clip-path="url(#clip0_1794_28287)"><path d="M83.3126 23.384C86.5875 23.384 89.445 21.999 91.3257 19.7775L87.9123 16.6816C87.0758 17.7679 85.4722 18.7582 83.4511 18.7582C81.2223 18.7582 79.5147 17.4818 78.8878 15.4071H92.1275C92.1978 14.8513 92.2325 14.2912 92.2315 13.7306C92.2315 8.08552 88.2258 3.93231 82.8952 3.93231C77.4937 3.93231 73.417 8.08552 73.417 13.5495C73.417 19.1583 77.6686 23.384 83.3126 23.384ZM82.8277 9.49588C84.4383 9.49588 85.7267 10.5677 86.1943 12.3112H79.4905C79.9286 10.5966 81.2171 9.49588 82.8277 9.49588Z" fill="#3B1F73"></path><path d="M9.57891 23.384C15.0324 23.384 19.1541 19.1837 19.1541 13.6455C19.1687 11.6086 18.5675 9.61903 17.4362 7.96064C17.9676 7.66855 18.5557 7.50695 19.1559 7.48811V1.61133C17.5418 1.6584 14.3293 2.99815 13.1032 4.55334C11.9738 4.12352 10.7808 3.90474 9.57891 3.907C4.12369 3.907 0.00195673 8.10728 0.00195673 13.6455C-0.0203334 15.9919 0.780611 18.2656 2.25332 20.0365C0.921552 21.0268 0.0487158 22.7847 0.00195673 24.6025C-0.0742433 27.7436 2.08014 30.2149 5.58707 30.3036L11.2051 30.4448C12.6477 30.4774 13.6868 30.9463 14.2115 31.9982L19.1385 29.1721C17.7133 26.0146 15.6541 25.1039 12.3948 24.9482L6.77856 24.798C5.44852 24.8143 4.77485 23.6121 5.4797 22.4896C6.77163 23.0829 8.16784 23.3875 9.57891 23.384ZM9.57891 9.44341C11.8303 9.44341 13.5465 11.2394 13.5465 13.6401C13.5465 16.0408 11.8303 17.8367 9.57891 17.8367C7.32755 17.8367 5.61132 16.0426 5.61132 13.6401C5.61132 11.2376 7.32755 9.44884 9.57891 9.44884V9.44341Z" fill="#3B1F73"></path><path d="M184.415 23.384C189.868 23.384 193.99 19.1837 193.99 13.6455C194.005 11.6074 193.404 9.61641 192.272 7.95702C192.803 7.66493 193.392 7.50332 193.992 7.48448V1.61133C192.378 1.6584 189.165 2.99815 187.93 4.55334C186.801 4.12367 185.608 3.90489 184.406 3.907C178.951 3.907 174.829 8.10728 174.829 13.6455C174.807 15.9919 175.608 18.2656 177.08 20.0365C175.749 21.0268 174.876 22.7847 174.829 24.6025C174.753 27.7436 176.907 30.2149 180.414 30.3036L186.032 30.4448C187.475 30.4774 188.514 30.9463 189.039 31.9982L193.966 29.1721C192.54 26.0146 190.481 25.1039 187.222 24.9482L181.623 24.798C180.293 24.8143 179.619 23.6121 180.324 22.4896C181.613 23.0817 183.007 23.3863 184.415 23.384ZM184.415 9.44341C186.666 9.44341 188.381 11.2394 188.381 13.6401C188.381 16.0408 186.666 17.8367 184.415 17.8367C182.163 17.8367 180.447 16.0426 180.447 13.6401C180.447 11.2376 182.163 9.44884 184.415 9.44884V9.44341Z" fill="#3B1F73"></path><path d="M140.911 23.384C143.162 23.384 145.013 22.5638 146.439 21.0304V22.9332H151.646V4.36322H145.715V14.7372C145.715 15.5448 145.408 16.3194 144.862 16.8905C144.315 17.4616 143.575 17.7824 142.802 17.7824C142.419 17.7829 142.04 17.7045 141.686 17.5516C141.332 17.3988 141.011 17.1746 140.74 16.8918C140.469 16.6089 140.254 16.2731 140.108 15.9034C139.961 15.5337 139.886 15.1374 139.886 14.7372V4.36322H133.954V16.1512C133.958 20.5126 136.739 23.384 140.911 23.384Z" fill="#3B1F73"></path><path d="M165.517 3.91602C163.265 3.91602 161.414 4.73616 159.989 6.26962V4.3632H154.779V22.9368H160.711V12.5628C160.711 11.7552 161.018 10.9806 161.564 10.4095C162.11 9.83843 162.851 9.5176 163.624 9.5176C164.396 9.5176 165.137 9.83843 165.683 10.4095C166.23 10.9806 166.537 11.7552 166.537 12.5628V22.9368H172.468V11.1488C172.475 6.78741 169.694 3.91602 165.517 3.91602Z" fill="#3B1F73"></path><path d="M110.674 0H105.438V22.9368H110.674V0Z" fill="#3B1F73"></path><path d="M112.743 13.6455C112.743 8.10727 116.867 3.90698 122.32 3.90698C127.774 3.90698 131.897 8.10727 131.897 13.6455C131.897 19.1837 127.774 23.384 122.32 23.384C116.867 23.384 112.743 19.1855 112.743 13.6455ZM126.288 13.6455C126.288 11.243 124.571 9.44882 122.32 9.44882C120.069 9.44882 118.353 11.243 118.353 13.6455C118.353 16.048 120.07 17.8421 122.32 17.8421C124.57 17.8421 126.288 16.048 126.288 13.6455Z" fill="#3B1F73"></path><path d="M64.947 3.90881C62.474 3.90881 60.4547 4.8919 59.0277 6.78384C57.9124 4.96432 55.997 3.90881 53.595 3.90881C51.541 3.90881 49.8335 4.67283 48.545 6.12845V4.36324H43.3184V22.9368H48.5225V12.4868C48.5225 10.8049 50.1816 9.4416 51.7904 9.4416C52.5628 9.44208 53.3035 9.76306 53.8496 10.334C54.3958 10.905 54.7029 11.6793 54.7033 12.4868V22.9296H59.8122V12.4977C59.8122 10.8139 61.4695 9.45065 63.0784 9.45065C63.4611 9.45065 63.84 9.52948 64.1935 9.68263C64.547 9.83577 64.8682 10.0602 65.1388 10.3432C65.4093 10.6262 65.6238 10.9621 65.7701 11.3318C65.9164 11.7014 65.9915 12.0976 65.9913 12.4977V22.9368H71.3478V10.9171C71.3478 6.76754 68.951 3.90881 64.947 3.90881Z" fill="#3B1F73"></path><path d="M40.1797 4.36139V22.9241H34.9531V20.9797C34.274 21.7316 33.4557 22.3312 32.5479 22.742C31.6402 23.1528 30.662 23.3663 29.6728 23.3695C24.8583 23.3695 21.1973 19.1095 21.1973 13.6455C21.1973 8.18147 24.8514 3.92145 29.6659 3.92145C30.6559 3.92422 31.6352 4.13733 32.5441 4.54784C33.4529 4.95835 34.2725 5.55768 34.9531 6.30945V4.36139H40.1797ZM34.6379 13.6473C34.6379 11.2502 32.9494 9.45423 30.6547 9.45423C28.4034 9.45423 26.7062 11.2502 26.7062 13.6473C26.7062 16.0443 28.3947 17.8421 30.6547 17.8421C32.9476 17.8421 34.6362 16.0443 34.6362 13.6473H34.6379Z" fill="#3B1F73"></path><path d="M206.081 23.384C209.356 23.384 212.214 21.999 214.094 19.7775L210.681 16.6816C209.844 17.7679 208.242 18.7582 206.221 18.7582C203.991 18.7582 202.283 17.4818 201.656 15.4071H214.896C214.967 14.8513 215.002 14.2912 215.002 13.7306C215.002 8.08552 210.994 3.93231 205.664 3.93231C200.262 3.93231 196.186 8.08552 196.186 13.5495C196.186 19.1583 200.437 23.384 206.081 23.384ZM205.596 9.49588C207.207 9.49588 208.495 10.5677 208.963 12.3112H202.259C202.697 10.5966 203.986 9.49588 205.596 9.49588Z" fill="#3B1F73"></path></g><defs><clipPath id="clip0_1794_28287"><rect width="215" height="32" fill="white"></rect></clipPath></defs></svg> 