<svg width="171" height="51" fill="none" xmlns="http://www.w3.org/2000/svg"><path d="M45.66 44.54v3.412c0 .47-.099.876-.293 1.228a2.372 2.372 0 0 1-.811.856 3.54 3.54 0 0 1-1.207.474l-.527-1.374c.832-.181 1.247-.596 1.247-1.243V44.54h1.591Zm3.848-.066 2.632 5.76h-1.853l-.28-.762h-1.802l-.28.762h-1.853l2.632-5.76h.804Zm-.4 2.558-.432 1.169h.867l-.431-1.169h-.004Zm6.174-2.475a2.5 2.5 0 0 1 1.592.568c.221.186.395.41.53.68.134.268.198.564.198.895 0 .435-.103.81-.305 1.122a2.016 2.016 0 0 1-.8.714 2.284 2.284 0 0 1-1.044.245c-.214 0-.408-.02-.578-.063a1.994 1.994 0 0 1-.444-.166v1.678h-1.587v-5.677h2.438v.004Zm-.847 1.48v1.315a2.012 2.012 0 0 0 .661.118c.25 0 .46-.079.626-.233a.716.716 0 0 0 .25-.537c0-.233-.084-.398-.25-.505-.166-.106-.376-.158-.626-.158h-.66Zm6.444-1.567 2.632 5.76H61.66l-.281-.762h-1.801l-.281.762h-1.852l2.632-5.76h.803Zm-.4 2.558-.431 1.169h.867l-.432-1.169h-.004Zm8.981-2.475v5.76h-.562l-3.048-2.87v2.787h-1.587v-5.76h.562l3.048 2.921v-2.838h1.587Zm5.253 2.21v1.185h-2.26v.924h2.556v1.354h-4.144v-5.677h4.144v1.315h-2.557v.896h2.26v.004Zm3.455-2.337c.332 0 .665.04.99.123.324.083.585.19.783.328v1.531a6.551 6.551 0 0 0-.72-.367 2.046 2.046 0 0 0-.843-.158 1.2 1.2 0 0 0-.483.087c-.135.06-.206.15-.206.28 0 .142.083.25.245.316.167.071.365.15.602.241l.61.229c.411.158.704.371.878.643.174.273.257.541.257.814 0 .363-.106.683-.312.96-.21.28-.491.5-.847.658a2.865 2.865 0 0 1-1.2.241 3 3 0 0 1-1.009-.177 3.56 3.56 0 0 1-.875-.442V48.2c.273.201.566.37.88.501.312.13.628.194.945.194.198 0 .356-.024.479-.072.123-.047.182-.13.182-.248 0-.083-.043-.158-.135-.221a1.368 1.368 0 0 0-.364-.162l-.807-.253c-.317-.102-.562-.24-.74-.414a1.383 1.383 0 0 1-.364-.589 2.23 2.23 0 0 1-.103-.663c0-.403.103-.738.305-1.01a1.93 1.93 0 0 1 .799-.624 2.604 2.604 0 0 1 1.045-.214h.008Zm6.986 2.338v1.184h-2.26v.924h2.557v1.354h-4.144v-5.677h4.144v1.315h-2.557v.896h2.26v.004Zm4.168-2.338c.3 0 .578.044.83.127a2.1 2.1 0 0 1 .674.37v1.533a3.215 3.215 0 0 0-.645-.41c-.206-.096-.471-.14-.8-.14-.253 0-.49.064-.709.194-.217.13-.395.308-.53.53a1.441 1.441 0 0 0-.206.757c0 .28.068.537.206.758.139.221.313.4.53.53.218.13.456.193.709.193.329 0 .594-.047.8-.138a3.22 3.22 0 0 0 .645-.41v1.53a1.926 1.926 0 0 1-.673.372c-.254.083-.53.126-.831.126-.384 0-.756-.067-1.117-.197a3.03 3.03 0 0 1-.97-.58 2.8 2.8 0 0 1-.68-.932 3.012 3.012 0 0 1-.25-1.256c0-.47.084-.888.25-1.255.166-.367.392-.68.68-.932.286-.252.61-.446.97-.58.36-.134.733-.197 1.117-.197v.007Zm5.414.044 2.632 5.76h-1.852l-.281-.762h-1.8l-.282.762h-1.852l2.632-5.76h.803Zm-.4 2.558-.43 1.169h.866l-.431-1.169h-.004Zm5.629-2.602c.332 0 .665.04.989.123.325.083.586.19.784.328v1.531a6.923 6.923 0 0 0-.72-.367 2.043 2.043 0 0 0-.839-.158 1.2 1.2 0 0 0-.483.087c-.135.055-.206.15-.206.28 0 .142.083.25.245.316.163.071.364.15.602.241l.609.229c.412.158.705.371.879.643.174.273.257.541.257.814 0 .363-.102.683-.312.96-.21.28-.491.5-.851.658-.36.158-.756.241-1.2.241a3 3 0 0 1-1.009-.177 3.558 3.558 0 0 1-.875-.442V48.2c.274.201.566.37.88.501.312.13.628.194.945.194.198 0 .356-.024.479-.072.123-.047.182-.13.182-.248 0-.083-.047-.158-.134-.221a1.387 1.387 0 0 0-.365-.162l-.807-.253c-.317-.102-.562-.24-.74-.414a1.423 1.423 0 0 1-.364-.589 2.23 2.23 0 0 1-.103-.663c0-.403.103-.738.304-1.01.206-.273.472-.482.8-.624a2.604 2.604 0 0 1 1.045-.214h.008Zm6.467 4.406v1.398h-3.507v-1.398h.962v-2.878h-.962v-1.397h3.507v1.397h-.958v2.878h.958Zm6.499-4.275v5.76h-.562l-3.047-2.87v2.787h-1.587v-5.76h.562l3.047 2.921v-2.838h1.587Zm3.99-.127c.384 0 .756.068 1.108.198.353.134.669.328.946.58.277.253.499.565.657.932.163.367.242.785.242 1.255 0 .47-.079.885-.242 1.256a2.73 2.73 0 0 1-.657.931 2.944 2.944 0 0 1-.946.58 3.091 3.091 0 0 1-1.108.198c-.384 0-.756-.067-1.108-.197a2.954 2.954 0 0 1-.946-.58 2.683 2.683 0 0 1-.657-.932 3.08 3.08 0 0 1-.242-1.256c0-.47.08-.888.242-1.255.162-.367.38-.68.657-.932s.594-.446.946-.58a3.089 3.089 0 0 1 1.108-.198Zm0 1.48c-.253 0-.483.064-.681.194a1.39 1.39 0 0 0-.471.53 1.643 1.643 0 0 0-.174.757c0 .28.06.537.174.758.115.221.273.4.471.53.198.13.424.193.681.193a1.262 1.262 0 0 0 1.156-.723 1.64 1.64 0 0 0 .17-.758c0-.28-.055-.537-.17-.758a1.357 1.357 0 0 0-.471-.529 1.23 1.23 0 0 0-.685-.193ZM91.182 23.348a7.288 7.288 0 0 1-2.996 3.676l.463.837v12.902h-10.01l-8.36-15.058-5.533 15.058h-9.729V34.11l-1.84 4.208h-5.474v2.444H38.73l-1.647-5.701h-7.591v-9.4a4.968 4.968 0 0 1-1.227-.521v6.636c0 .841-.218 1.666-.657 2.408l-2.474 4.209a4.824 4.824 0 0 1-4.144 2.369H0V18.528h5.395V.49h13.307v5.132a4.907 4.907 0 0 1 4.108-2.227c1.718 0 3.096.81 3.986 2.05a4.899 4.899 0 0 1 3.986-2.05c2.703 0 4.908 2.196 4.908 4.892v2.704h7.077l.839 2.906H58.33v5.042l2.806-7.628h3.353v-8.71h10.01l2.667 4.806A7.262 7.262 0 0 1 84.374.979a7.264 7.264 0 0 1 7.057 5.567h7.1l1.913-5.33h9.764V6.55h8.89v11.978h5.395V.49h13.303v5.132a4.906 4.906 0 0 1 4.108-2.227c1.718 0 3.095.81 3.986 2.05a4.9 4.9 0 0 1 3.986-2.05c2.703 0 4.908 2.196 4.908 4.892v4.228l6.214-11.29H171v12.648L156.201 40.76h-10.002v-5.713l-1.967 3.348a4.824 4.824 0 0 1-4.144 2.369h-30.596V28.785h-4.615l-4.295 11.978h-9.78V27.86l.384-1.074v-3.435l-.004-.004Z" fill="#000"/><mask id="a" style="mask-type:alpha" maskUnits="userSpaceOnUse" x="1" y="1" width="168" height="26"><path d="M68.894 12.72 63.76 26.696h-6.776l5.134-13.976h6.776ZM66.88 4.011l12.59 22.685h6.776L73.656 4.011h-6.777Zm17.487-1.618c-3.23 0-5.846 2.61-5.846 5.83 0 3.222 2.616 5.832 5.846 5.832s5.846-2.61 5.846-5.831c0-3.222-2.616-5.831-5.846-5.831Zm2.268 5.83a2.265 2.265 0 0 1-2.268 2.263 2.267 2.267 0 0 1-2.268-2.262 2.267 2.267 0 0 1 4.536 0ZM17.285 1.9H6.812v6.759h10.477v-6.76h-.004Zm0 8.232H6.812v6.759h10.477v-6.756l-.004-.003Zm5.521-5.33a3.487 3.487 0 0 0-3.49 3.482 3.487 3.487 0 0 0 3.49 3.482 3.487 3.487 0 0 0 3.491-3.482 3.487 3.487 0 0 0-3.49-3.482Zm7.968 0a3.487 3.487 0 0 0-3.49 3.482 3.487 3.487 0 0 0 3.49 3.482 3.487 3.487 0 0 0 3.491-3.482 3.487 3.487 0 0 0-3.49-3.482Zm-6.863 20.221 2.474-4.208a3.373 3.373 0 0 0-1.212-4.623 3.391 3.391 0 0 0-4.634 1.208l-1.493 2.538H1.413v6.76h19.58a3.383 3.383 0 0 0 2.922-1.67l-.004-.005Zm18.622-9.72-.839-2.905h-6.032l.84 2.905H30.9v5.685h7.243l1.647 5.701h6.032l-1.647-5.7h5.442l-1.254 3.256h3.887l3.914-8.942H42.533Zm63.757-7.347 1.912-5.33h-6.777l-1.911 5.33H92.59v6.76h4.5l-4.294 11.977h6.776l4.295-11.978h7.025v11.978h6.776V7.96H106.29v-.004ZM136.375 1.9h-10.477v6.759h10.477v-6.76Zm0 8.232h-10.477v6.759h10.477V10.13Zm5.522-5.33a3.487 3.487 0 0 0-3.491 3.482 3.487 3.487 0 0 0 3.491 3.482 3.487 3.487 0 0 0 3.491-3.482 3.487 3.487 0 0 0-3.491-3.482Zm7.967 0a3.487 3.487 0 0 0-3.491 3.482 3.487 3.487 0 0 0 3.491 3.482 3.487 3.487 0 0 0 3.491-3.482 3.487 3.487 0 0 0-3.491-3.482Zm-6.863 20.221 2.474-4.208a3.373 3.373 0 0 0-1.212-4.623 3.39 3.39 0 0 0-4.634 1.208l-1.493 2.538h-17.637v6.76h19.581a3.384 3.384 0 0 0 2.921-1.67v-.005Zm18.82-22.389-8.889 16.148h6.776l8.89-16.148h-6.777Zm-13.243 24.063 2.699-4.907h6.776l-2.699 4.907h-6.776Z" fill="#fff"/></mask><g mask="url(#a)"><path d="M502.97 1.9H1.413v24.796H502.97V1.9Z" fill="url(#b)"/></g><defs><linearGradient id="b" x1="1.413" y1="14.3" x2="502.97" y2="14.3" gradientUnits="userSpaceOnUse"><stop stop-color="#fff"/><stop offset=".15" stop-color="#FCEE21"/><stop offset=".3" stop-color="#E7370A"/><stop offset=".37" stop-color="#E7370A"/><stop offset=".52" stop-color="#FCEE21"/><stop offset=".67" stop-color="#fff"/><stop offset=".82" stop-color="#FF0"/><stop offset=".97" stop-color="#E7370A"/></linearGradient></defs></svg>