<svg width="69" height="52" viewBox="0 0 69 52" fill="none" xmlns="http://www.w3.org/2000/svg">
<g clip-path="url(#clip0_2_394)">
<path d="M7.7633 46.862C7.21846 46.862 6.78259 46.7042 6.4755 46.3887C6.1585 46.0732 6 45.6394 6 45.0972V35.3169C6.13869 35.2873 6.35662 35.2578 6.66371 35.2085C6.9708 35.169 7.25808 35.1394 7.53545 35.1394C7.82273 35.1394 8.08029 35.1592 8.30813 35.2085C8.52607 35.2578 8.71429 35.3268 8.87278 35.4451C9.02138 35.5634 9.14025 35.7211 9.2195 35.9183C9.29875 36.1155 9.33837 36.3817 9.33837 36.7169V44.1901H13.6872C13.7763 44.3282 13.8556 44.5155 13.9348 44.7521C14.0141 44.9887 14.0537 45.2254 14.0537 45.4817C14.0537 45.9845 13.9447 46.3394 13.7268 46.5465C13.5089 46.7535 13.2216 46.862 12.8749 46.862H7.7633Z" fill="#121123"/>
<path d="M51.9744 37.4563C52.8662 37.4563 53.5891 36.7368 53.5891 35.8493C53.5891 34.9618 52.8662 34.2423 51.9744 34.2423C51.0827 34.2423 50.3597 34.9618 50.3597 35.8493C50.3597 36.7368 51.0827 37.4563 51.9744 37.4563Z" fill="#121123"/>
<path d="M22.7513 39.4085C22.5432 38.9845 22.246 38.6394 21.8597 38.3634C21.4734 38.0873 21.0078 37.8901 20.4629 37.7521C19.9181 37.6141 19.3138 37.5549 18.6501 37.5549C18.2242 37.5549 17.7685 37.5845 17.2831 37.6437C16.7977 37.7028 16.3816 37.8014 16.025 37.9394C15.708 38.0775 15.4702 38.2352 15.3216 38.4225C15.1731 38.6099 15.0938 38.8662 15.0938 39.1817C15.0938 39.4282 15.1532 39.6549 15.2622 39.8817C15.3712 40.1085 15.5099 40.2761 15.6684 40.3845C16.025 40.2366 16.4212 40.1183 16.8571 40.0197C17.293 39.9211 17.7487 39.8718 18.2142 39.8718C18.7987 39.8718 19.2544 39.9507 19.5615 40.0986C19.8785 40.2465 20.0271 40.5028 20.0271 40.8577V40.9859L17.6199 41.2423C16.5698 41.3507 15.7872 41.6366 15.2919 42.0803C14.7867 42.5338 14.5391 43.1746 14.5391 44.0127C14.5391 44.5155 14.6381 44.9493 14.8462 45.3239C15.0443 45.6986 15.3316 46.0141 15.708 46.2507C16.0844 46.4972 16.5302 46.6747 17.0453 46.8028C17.5604 46.9211 18.1449 46.9901 18.7987 46.9901C20.245 46.9901 21.3644 46.7535 22.1569 46.2803C22.4045 46.1324 22.6126 45.9648 22.7909 45.7577C22.9692 45.5606 23.0584 45.2944 23.0584 44.9789V40.8873C23.0584 40.3254 22.9593 39.8324 22.7513 39.4085ZM20.0469 44.4958C19.928 44.5648 19.7398 44.6239 19.4822 44.6732C19.2346 44.7127 19.0067 44.7324 18.7987 44.7324C18.343 44.7324 18.026 44.6535 17.8378 44.5056C17.6496 44.3577 17.5505 44.1507 17.5505 43.9141C17.5505 43.6676 17.6595 43.4901 17.8774 43.362C18.0954 43.2437 18.3826 43.1648 18.7195 43.1451L20.037 43.0366V44.4958H20.0469Z" fill="#121123"/>
<path d="M32.7366 39.4085C32.5286 38.9845 32.2314 38.6394 31.8451 38.3634C31.4587 38.0873 30.9931 37.8901 30.4483 37.7521C29.9035 37.6141 29.2992 37.5549 28.6355 37.5549C28.2095 37.5549 27.7538 37.5845 27.2684 37.6437C26.783 37.7028 26.367 37.8014 26.0103 37.9394C25.6933 38.0775 25.4556 38.2352 25.307 38.4225C25.1584 38.6099 25.0792 38.8662 25.0792 39.1817C25.0792 39.4282 25.1386 39.6549 25.2476 39.8817C25.3565 40.1085 25.4952 40.2761 25.6537 40.3845C26.0103 40.2366 26.4066 40.1183 26.8425 40.0197C27.2783 39.9211 27.734 39.8718 28.1996 39.8718C28.7841 39.8718 29.2397 39.9507 29.5468 40.0986C29.8638 40.2465 30.0124 40.5028 30.0124 40.8577V40.9859L27.6052 41.2423C26.5552 41.3507 25.7726 41.6366 25.2773 42.0803C24.7721 42.5338 24.5244 43.1746 24.5244 44.0127C24.5244 44.5155 24.6235 44.9493 24.8315 45.3239C25.0296 45.6986 25.3169 46.0141 25.6933 46.2507C26.0698 46.4972 26.5155 46.6747 27.0307 46.8028C27.5458 46.9211 28.1303 46.9901 28.7841 46.9901C30.2304 46.9901 31.3498 46.7535 32.1422 46.2803C32.3899 46.1324 32.5979 45.9648 32.7762 45.7577C32.9545 45.5606 33.0437 45.2944 33.0437 44.9789V40.8873C33.0437 40.3254 32.9446 39.8324 32.7366 39.4085ZM30.0322 44.4958C29.9134 44.5648 29.7251 44.6239 29.4676 44.6732C29.2199 44.7127 28.9921 44.7324 28.7841 44.7324C28.3284 44.7324 28.0114 44.6535 27.8232 44.5056C27.6349 44.3577 27.5359 44.1507 27.5359 43.9141C27.5359 43.6676 27.6449 43.4901 27.8628 43.362C28.0807 43.2437 28.368 43.1648 28.7048 43.1451L30.0223 43.0366V44.4958H30.0322Z" fill="#121123"/>
<path d="M53.5991 46.6845C53.4604 46.7042 53.2623 46.7437 53.0047 46.7831C52.7372 46.8225 52.4797 46.8423 52.2023 46.8423C51.9348 46.8423 51.6872 46.8225 51.4792 46.7831C51.2612 46.7437 51.0829 46.6747 50.9343 46.5662C50.7857 46.4577 50.6768 46.3099 50.5975 46.1225C50.5183 45.9352 50.4786 45.6887 50.4786 45.3831V37.9493C50.6173 37.9296 50.8154 37.8901 51.073 37.8507C51.3405 37.8113 51.598 37.7915 51.8754 37.7915C52.1429 37.7915 52.3905 37.8113 52.5986 37.8507C52.8165 37.8901 52.9948 37.9592 53.1434 38.0676C53.292 38.1761 53.401 38.3239 53.4802 38.5113C53.5594 38.6986 53.5991 38.9451 53.5991 39.2507V46.6845Z" fill="#121123"/>
<path d="M60.6126 40C60.3055 40 60.0182 40.0493 59.7409 40.1479C59.4635 40.2465 59.2258 40.3845 59.0276 40.5817C58.8295 40.769 58.6611 41.0056 58.5422 41.2817C58.4234 41.5577 58.354 41.893 58.354 42.2676C58.354 43.0268 58.5719 43.5887 59.0078 43.9634C59.4437 44.338 59.9687 44.5254 60.5928 44.5254C60.9593 44.5254 61.2763 44.4859 61.5438 44.3972C61.8113 44.3085 62.049 44.2197 62.257 44.1211C62.5047 44.2887 62.683 44.4761 62.8118 44.6831C62.9307 44.8803 63 45.1268 63 45.4028C63 45.9056 62.7623 46.2901 62.2868 46.5662C61.8113 46.8423 61.1476 46.9803 60.3055 46.9803C59.5328 46.9803 58.8394 46.8718 58.2153 46.6451C57.5912 46.4183 57.0563 46.1028 56.6105 45.6986C56.1648 45.2944 55.818 44.8014 55.5704 44.2296C55.3227 43.6577 55.2039 43.0268 55.2039 42.3268C55.2039 41.5183 55.3326 40.8183 55.6001 40.2169C55.8676 39.6155 56.2242 39.1225 56.67 38.7282C57.1257 38.3338 57.6408 38.0479 58.2351 37.8507C58.8295 37.6535 59.4536 37.5549 60.1173 37.5549C60.999 37.5549 61.6726 37.7127 62.158 38.0282C62.6335 38.3437 62.8712 38.7577 62.8712 39.2507C62.8712 39.4775 62.8118 39.6944 62.7028 39.9014C62.5939 40.0986 62.4651 40.2761 62.3165 40.4239C62.1084 40.3254 61.8608 40.2366 61.5636 40.138C61.2763 40.0493 60.9593 40 60.6126 40Z" fill="#121123"/>
<path d="M34.9855 40.1873V45.393C34.9855 45.6986 35.0251 45.9451 35.1043 46.1324C35.1836 46.3197 35.2926 46.4676 35.4412 46.5761C35.5897 46.6845 35.7681 46.7634 35.986 46.793C36.2039 46.8324 36.4417 46.8521 36.7091 46.8521C36.9865 46.8521 37.2639 46.8324 37.5214 46.793C37.7889 46.7535 37.9771 46.724 38.096 46.6845V40.8972L38.0861 40.7887C37.1252 40.3845 36.4417 40.2169 34.9855 40.1873Z" fill="#121123"/>
<path d="M37.5511 37.9592C37.6798 37.9592 37.8086 37.9592 37.9374 37.969V37.9394C37.9374 37.5056 38.086 37.1901 38.3733 37.0127C38.6705 36.8352 39.0766 36.7465 39.6016 36.7465C39.9285 36.7465 40.2257 36.7662 40.4734 36.8056C40.721 36.8451 40.9687 36.9042 41.1965 36.9634C41.3154 36.8648 41.4343 36.7169 41.5333 36.5296C41.6324 36.3324 41.6918 36.1155 41.6918 35.869C41.6918 35.2972 41.4739 34.893 41.0479 34.6563C40.622 34.4197 39.9484 34.3014 39.0469 34.3014C38.4822 34.3014 37.9572 34.3704 37.4619 34.4986C36.9666 34.6366 36.5307 34.8437 36.1642 35.1296C35.7977 35.4155 35.5104 35.7803 35.2925 36.224C35.0745 36.6676 34.9755 37.2 34.9755 37.8211V38.462C35.7085 38.1859 36.5803 37.9592 37.5511 37.9592Z" fill="#121123"/>
<path d="M42.6031 41.8831V45.393C42.6031 45.6986 42.6428 45.9451 42.722 46.1324C42.8013 46.3197 42.9102 46.4676 43.0588 46.5761C43.2074 46.6845 43.3857 46.7634 43.6037 46.793C43.8216 46.8324 44.0594 46.8521 44.3268 46.8521C44.6042 46.8521 44.8816 46.8324 45.1391 46.793C45.4066 46.7535 45.5948 46.7239 45.7137 46.6845V41.3901C44.9113 41.6761 43.881 41.8634 42.6031 41.8831Z" fill="#121123"/>
<path d="M48.6856 34.6563C48.2597 34.4197 47.586 34.3014 46.6846 34.3014C46.1199 34.3014 45.5949 34.3704 45.0996 34.4986C44.6043 34.6366 44.1684 34.8437 43.8019 35.1296C43.4354 35.4155 43.1481 35.7803 42.9302 36.224C42.7122 36.6676 42.6132 37.2 42.6132 37.8211V39.369C43.0589 39.4479 43.5245 39.4775 44 39.4775C44.5746 39.4775 45.1293 39.4183 45.6246 39.3394L45.5652 38.5211V37.9394C45.5652 37.5056 45.7138 37.1901 46.0011 37.0127C46.2982 36.8352 46.7044 36.7465 47.2294 36.7465C47.5563 36.7465 47.8535 36.7662 48.1012 36.8056C48.3488 36.8451 48.5965 36.9042 48.8243 36.9634C48.9432 36.8648 49.0621 36.7169 49.1611 36.5296C49.2602 36.3324 49.3196 36.1155 49.3196 35.869C49.3196 35.2972 49.1116 34.893 48.6856 34.6563Z" fill="#121123"/>
<path d="M33.0437 39.9408C33.0437 39.9408 36.392 36.9042 40.3544 38.9155C44.3169 40.9268 48.5865 38.6887 48.5865 38.6887C48.5865 38.6887 47.477 41.9127 41.672 41.5972C40.8795 41.5577 40.0969 41.3606 39.3638 41.0451C37.125 40.069 36.7684 39.8324 33.0437 39.9408Z" fill="url(#paint0_linear_2_394)"/>
<path d="M22.8009 10.6394L18.4719 28.8394C18.3827 29.2141 18.67 29.5789 19.0662 29.5789H37.7592C38.0365 29.5789 38.2743 29.3916 38.3436 29.1254L39.889 23.3085C39.988 22.9239 39.7008 22.5493 39.3045 22.5493H31.7263C31.34 22.5493 31.0428 22.1845 31.1319 21.8099L34.5793 7.10986C34.6387 6.8338 34.8864 6.64648 35.1737 6.64648H36.828C37.2242 6.64648 37.5115 7.01127 37.4223 7.38592L34.6684 18.9113C34.5793 19.2859 34.8666 19.6507 35.2628 19.6507H42.6429C43.0391 19.6507 43.3264 20.0155 43.2274 20.4L42.3556 23.8606C42.2565 24.2451 42.5537 24.6099 42.9401 24.6099H45.4364C45.7138 24.6099 45.9515 24.4324 46.0209 24.1662L47.5563 18.5563C47.6653 18.1718 47.3681 17.7972 46.9719 17.7972H39.4135C39.0172 17.7972 38.73 17.4225 38.829 17.0479L41.7612 5.7493C41.8504 5.37465 41.5631 5 41.1669 5H31.5975C31.3202 5 31.0725 5.18732 31.0032 5.46338L26.5553 23.8803C26.4661 24.2549 26.7534 24.6197 27.1497 24.6197H34.7576C35.1439 24.6197 35.4312 24.9746 35.352 25.3493L34.9854 27.0352C34.926 27.3113 34.6783 27.5085 34.3911 27.5085H23.425C23.0287 27.5085 22.7414 27.1437 22.8306 26.769L26.6445 10.9155C26.7336 10.5408 26.4463 10.1761 26.0501 10.1761H23.3853C23.108 10.1761 22.8603 10.3634 22.8009 10.6394Z" fill="url(#paint1_linear_2_394)"/>
</g>
<defs>
<linearGradient id="paint0_linear_2_394" x1="33.1332" y1="38.8453" x2="48.5321" y2="39.8018" gradientUnits="userSpaceOnUse">
<stop offset="5.5409e-07" stop-color="#FF1454"/>
<stop offset="0.2516" stop-color="#F2176B"/>
<stop offset="0.7769" stop-color="#D01FA6"/>
<stop offset="1" stop-color="#C122C1"/>
</linearGradient>
<linearGradient id="paint1_linear_2_394" x1="18.4543" y1="17.2885" x2="47.5742" y2="17.2885" gradientUnits="userSpaceOnUse">
<stop offset="5.5409e-07" stop-color="#FF1454"/>
<stop offset="0.2516" stop-color="#F2176B"/>
<stop offset="0.7769" stop-color="#D01FA6"/>
<stop offset="1" stop-color="#C122C1"/>
</linearGradient>
<clipPath id="clip0_2_394">
<rect width="57" height="42" fill="white" transform="translate(6 5)"/>
</clipPath>
</defs>
</svg>
